<svg xmlns="http://www.w3.org/2000/svg" xmlns:xlink="http://www.w3.org/1999/xlink" contentStyleType="text/css" height="776px" preserveAspectRatio="none" style="width:939px;height:776px;background:#FFFFFF;" version="1.1" viewBox="0 0 939 776" width="939px" zoomAndPan="magnify"><defs/><g><ellipse cx="586.5" cy="16" fill="#222222" rx="10" ry="10" style="stroke:#222222;stroke-width:1.0;"/><g id="Черновик"><rect fill="#F1F1F1" height="50" rx="12.5" ry="12.5" style="stroke:#181818;stroke-width:0.5;" width="90" x="541.5" y="103"/><line style="stroke:#181818;stroke-width:0.5;" x1="541.5" x2="631.5" y1="129.2969" y2="129.2969"/><text fill="#000000" font-family="sans-serif" font-size="14" lengthAdjust="spacing" textLength="70" x="551.5" y="120.9951">Черновик</text></g><g id="Оформлен"><rect fill="#F1F1F1" height="50" rx="12.5" ry="12.5" style="stroke:#181818;stroke-width:0.5;" width="99" x="537" y="230"/><line style="stroke:#181818;stroke-width:0.5;" x1="537" x2="636" y1="256.2969" y2="256.2969"/><text fill="#000000" font-family="sans-serif" font-size="14" lengthAdjust="spacing" textLength="79" x="547" y="247.9951">Оформлен</text></g><g id="Оплачен"><rect fill="#F1F1F1" height="50" rx="12.5" ry="12.5" style="stroke:#181818;stroke-width:0.5;" width="83" x="340" y="359.7"/><line style="stroke:#181818;stroke-width:0.5;" x1="340" x2="423" y1="385.9969" y2="385.9969"/><text fill="#000000" font-family="sans-serif" font-size="14" lengthAdjust="spacing" textLength="63" x="350" y="377.6951">Оплачен</text></g><g id="Отменён"><rect fill="#F1F1F1" height="50" rx="12.5" ry="12.5" style="stroke:#181818;stroke-width:0.5;" width="86" x="709.5" y="489.4"/><line style="stroke:#181818;stroke-width:0.5;" x1="709.5" x2="795.5" y1="515.6969" y2="515.6969"/><text fill="#000000" font-family="sans-serif" font-size="14" lengthAdjust="spacing" textLength="66" x="719.5" y="507.3951">Отменён</text></g><g id="Выполнен"><rect fill="#F1F1F1" height="50" rx="12.5" ry="12.5" style="stroke:#181818;stroke-width:0.5;" width="95" x="334" y="489.4"/><line style="stroke:#181818;stroke-width:0.5;" x1="334" x2="429" y1="515.6969" y2="515.6969"/><text fill="#000000" font-family="sans-serif" font-size="14" lengthAdjust="spacing" textLength="75" x="344" y="507.3951">Выполнен</text></g><g id="Завершён"><rect fill="#F1F1F1" height="50" rx="12.5" ry="12.5" style="stroke:#181818;stroke-width:0.5;" width="94" x="519.5" y="619.1"/><line style="stroke:#181818;stroke-width:0.5;" x1="519.5" x2="613.5" y1="645.3969" y2="645.3969"/><text fill="#000000" font-family="sans-serif" font-size="14" lengthAdjust="spacing" textLength="74" x="529.5" y="637.0951">Завершён</text></g><ellipse cx="566.5" cy="759.8" fill="none" rx="11" ry="11" style="stroke:#222222;stroke-width:1.0;"/><ellipse cx="566.5" cy="759.8" fill="#222222" rx="6" ry="6" style="stroke:#222222;stroke-width:1.0;"/><g id="elem_GMN19"><path d="M648.5,616.4 L648.5,640.1 L613.75,644.1 L648.5,648.1 L648.5,671.7984 A0,0 0 0 0 648.5,671.7984 L932.5,671.7984 A0,0 0 0 0 932.5,671.7984 L932.5,626.4 L922.5,616.4 L648.5,616.4 A0,0 0 0 0 648.5,616.4 " fill="#FEFFDD" style="stroke:#181818;stroke-width:0.5;"/><path d="M922.5,616.4 L922.5,626.4 L932.5,626.4 L922.5,616.4 " fill="#FEFFDD" style="stroke:#181818;stroke-width:0.5;"/><text fill="#000000" font-family="sans-serif" font-size="13" lengthAdjust="spacing" textLength="154" x="654.5" y="633.4669">Финальное состояние.</text><text fill="#000000" font-family="sans-serif" font-size="13" lengthAdjust="spacing" textLength="189" x="654.5" y="648.5997">Все данные переданы в 1С,</text><text fill="#000000" font-family="sans-serif" font-size="13" lengthAdjust="spacing" textLength="263" x="654.5" y="663.7325">чаевые начислены, рейтинг обновлён.</text></g><g id="elem_GMN22"><path d="M458.5,357 L458.5,380.7 L423.14,384.7 L458.5,388.7 L458.5,412.3984 A0,0 0 0 0 458.5,412.3984 L722.5,412.3984 A0,0 0 0 0 722.5,412.3984 L722.5,367 L712.5,357 L458.5,357 A0,0 0 0 0 458.5,357 " fill="#FEFFDD" style="stroke:#181818;stroke-width:0.5;"/><path d="M712.5,357 L712.5,367 L722.5,367 L712.5,357 " fill="#FEFFDD" style="stroke:#181818;stroke-width:0.5;"/><text fill="#000000" font-family="sans-serif" font-size="13" lengthAdjust="spacing" textLength="239" x="464.5" y="374.0669">Отмена пользователем разрешена</text><text fill="#000000" font-family="sans-serif" font-size="13" lengthAdjust="spacing" textLength="154" x="464.5" y="389.1997">только за 30-60 минут</text><text fill="#000000" font-family="sans-serif" font-size="13" lengthAdjust="spacing" textLength="115" x="464.5" y="404.3325">до входа в бокс!</text></g><g id="elem_GMN25"><path d="M6,501.84 L6,526.9728 A0,0 0 0 0 6,526.9728 L299,526.9728 A0,0 0 0 0 299,526.9728 L299,519.84 L333.6,514.4 L299,511.84 L299,511.84 L289,501.84 L6,501.84 A0,0 0 0 0 6,501.84 " fill="#FEFFDD" style="stroke:#181818;stroke-width:0.5;"/><path d="M289,501.84 L289,511.84 L299,511.84 L289,501.84 " fill="#FEFFDD" style="stroke:#181818;stroke-width:0.5;"/><text fill="#000000" font-family="sans-serif" font-size="13" lengthAdjust="spacing" textLength="272" x="12" y="518.9069">Нельзя отменить или вернуться назад.</text></g><!--link *start* to ????????--><g id="link_*start*_Черновик"><path d="M586.5,26.38 C586.5,43.11 586.5,72.6 586.5,96.63 " fill="none" id="*start*-to-Черновик" style="stroke:#181818;stroke-width:1.0;"/><polygon fill="#181818" points="586.5,102.63,590.5,93.63,586.5,97.63,582.5,93.63,586.5,102.63" style="stroke:#181818;stroke-width:1.0;"/><text fill="#000000" font-family="sans-serif" font-size="13" lengthAdjust="spacing" textLength="40" x="587.5" y="69.0669">Заказ</text></g><!--link ???????? to ????????--><g id="link_Черновик_Оформлен"><path d="M586.5,153.4 C586.5,175.43 586.5,201.66 586.5,223.67 " fill="none" id="Черновик-to-Оформлен" style="stroke:#181818;stroke-width:1.0;"/><polygon fill="#181818" points="586.5,229.67,590.5,220.67,586.5,224.67,582.5,220.67,586.5,229.67" style="stroke:#181818;stroke-width:1.0;"/><text fill="#000000" font-family="sans-serif" font-size="13" lengthAdjust="spacing" textLength="120" x="587.5" y="196.0669">Выбор услуг/авто</text></g><!--link ???????? to ???????--><g id="link_Оформлен_Оплачен"><path d="M547.46,280.32 C511.1,302.97 462.2629,333.3979 425.8329,356.0879 " fill="none" id="Оформлен-to-Оплачен" style="stroke:#181818;stroke-width:1.0;"/><polygon fill="#181818" points="420.74,359.26,430.4941,357.8972,424.9841,356.6166,426.2647,351.1066,420.74,359.26" style="stroke:#181818;stroke-width:1.0;"/><text fill="#000000" font-family="sans-serif" font-size="13" lengthAdjust="spacing" textLength="118" x="497.27" y="323.0669">Успешная оплата</text></g><!--link ???????? to ???????--><g id="link_Оформлен_Отменён"><path d="M636.44,274.65 C671.92,290.73 717.25,317.63 740.5,357 C764.8,398.16 762.2453,450.447 757.7253,482.997 " fill="none" id="Оформлен-to-Отменён" style="stroke:#181818;stroke-width:1.0;"/><polygon fill="#181818" points="756.9,488.94,762.0999,480.5757,757.5877,483.9875,754.1759,479.4754,756.9,488.94" style="stroke:#181818;stroke-width:1.0;"/><text fill="#000000" font-family="sans-serif" font-size="13" lengthAdjust="spacing" textLength="162" x="758.86" y="389.2669">Клиент/кассир отменил</text></g><!--link ??????? to ????????--><g id="link_Оплачен_Выполнен"><path d="M381.5,410.02 C381.5,432.74 381.5,460.48 381.5,483.17 " fill="none" id="Оплачен-to-Выполнен" style="stroke:#181818;stroke-width:1.0;"/><polygon fill="#181818" points="381.5,489.17,385.5,480.17,381.5,484.17,377.5,480.17,381.5,489.17" style="stroke:#181818;stroke-width:1.0;"/><text fill="#000000" font-family="sans-serif" font-size="13" lengthAdjust="spacing" textLength="169" x="382.5" y="455.4669">Мойщик завершил мойку</text></g><!--link ??????? to ???????--><g id="link_Оплачен_Отменён"><path d="M423.34,405.75 C429.05,408.15 434.87,410.44 440.5,412.4 C492.42,430.47 507.97,426.18 560.5,442.4 C612.28,458.4 664.931,478.3221 703.541,493.6021 " fill="none" id="Оплачен-to-Отменён" style="stroke:#181818;stroke-width:1.0;"/><polygon fill="#181818" points="709.12,495.81,702.2234,488.7788,704.4708,493.9701,699.2796,496.2175,709.12,495.81" style="stroke:#181818;stroke-width:1.0;"/><text fill="#000000" font-family="sans-serif" font-size="13" lengthAdjust="spacing" textLength="116" x="609.49" y="455.4669">До начала мойки</text></g><!--link ???????? to ????????--><g id="link_Выполнен_Завершён"><path d="M373.31,539.7 C369.91,554.58 368.71,573.23 378.5,586.4 C395.37,609.12 463.5096,625.1215 513.4896,634.3415 " fill="none" id="Выполнен-to-Завершён" style="stroke:#181818;stroke-width:1.0;"/><polygon fill="#181818" points="519.39,635.43,511.265,629.8637,514.473,634.5229,509.8137,637.7309,519.39,635.43" style="stroke:#181818;stroke-width:1.0;"/><text fill="#000000" font-family="sans-serif" font-size="13" lengthAdjust="spacing" textLength="329" x="379.5" y="582.4669">Клиент оставил отзыв / Система закрыла заказ</text></g><!--link ??????? to ????????--><g id="link_Отменён_Завершён"><path d="M744.25,539.7 C737.96,554.96 727.9,574.03 713.5,586.4 C684.06,611.69 667.68,602.36 631.5,616.4 C625.81,618.61 625.433,618.7221 619.543,621.1021 " fill="none" id="Отменён-to-Завершён" style="stroke:#181818;stroke-width:1.0;"/><polygon fill="#181818" points="613.98,623.35,623.8231,623.6869,618.6158,621.4768,620.8259,616.2695,613.98,623.35" style="stroke:#181818;stroke-width:1.0;"/><text fill="#000000" font-family="sans-serif" font-size="13" lengthAdjust="spacing" textLength="189" x="729.04" y="582.4669">Автоматически через 1 час</text></g><!--link ???????? to *end*--><g id="link_Завершён_*end*"><path d="M566.5,669.49 C566.5,694.03 566.5,724.69 566.5,742.44 " fill="none" id="Завершён-to-*end*" style="stroke:#181818;stroke-width:1.0;"/><polygon fill="#181818" points="566.5,748.44,570.5,739.44,566.5,743.44,562.5,739.44,566.5,748.44" style="stroke:#181818;stroke-width:1.0;"/><text fill="#000000" font-family="sans-serif" font-size="13" lengthAdjust="spacing" textLength="42" x="567.5" y="714.8669">Конец</text></g><!--SRC=[TLFTIXjH4BxVfvZU5cCKeHUzw8k8TyQs80h51p0RhPODf9M282f82xrTrooxxYQRLvXvetxVdArf4dCHDkVCpFSpCsVtxPvqEXz4_sXkfphLHZCjjPBtejUQQeLV4KKhOQ-vjpDjS3tHMdETikRA4dtafTZ0-bhRG9-wmCWirWOuooK1HsSufdRn3-KNIcTWl0HZQYC1RSY8DLs7WTY4H_iHC6uGBVqYxjA6zG5QGXXgsrJ4QsfQe7SqsfY1jKPIg-aMnsVxvkwre2Ms11818i13L2iRl0gt8kwdDkBUBW24v1S0BI5ecTqnhkUKhrYagpxRu_EfWya2E9bqHHzWdD4SD6bGNm4e2TJ5VtDULBgE-7kO9z7mBMaLpOLuyR-d02XacmUq7QZB4CJTnUQvXuOkxMiK7HsVzEJBvu-VJkJuO8Kt4j7Vy3PbnspekvWBQ8FnnaO-q7oJYLUupqN7o9t2IyB3h5NcbvO8MhEj3nj8zodayEHvOImbjzSRaMo8rptJAg9FNCV7zYtKbBOPzOxsXV9R4uUzW-1XOHSexAM_RBpF65OAXqfzGEISa13p82qMB6HJPzmML5mVZ4rsjZhljhWy48O75vDYp61cvyWTaoKJlaWClFzchSwbZIFC7SLGdB-_-PEns8R27SEqmtm2jGqnXv6tppTgFE_ANm00]--></g></svg>