<svg xmlns="http://www.w3.org/2000/svg" xmlns:xlink="http://www.w3.org/1999/xlink" contentStyleType="text/css" data-diagram-type="DESCRIPTION" height="2065px" preserveAspectRatio="none" style="width:580px;height:2065px;background:#FFFFFF;" version="1.1" viewBox="0 0 580 2065" width="580px" zoomAndPan="magnify"><defs/><g><!--cluster ??????? ?????????--><g class="cluster" data-entity="....... ........." data-source-line="8" data-uid="ent0006" id="cluster_....... ........."><rect fill="none" height="2052" rx="2.5" ry="2.5" style="stroke:#181818;stroke-width:1;" width="385.9" x="188.6" y="7"/><text fill="#000000" font-family="sans-serif" font-size="14" font-weight="bold" lengthAdjust="spacing" textLength="159.0039" x="302.048" y="21.9951">&#1057;&#1080;&#1089;&#1090;&#1077;&#1084;&#1072; &#1040;&#1074;&#1090;&#1086;&#1084;&#1086;&#1081;&#1082;&#1072;</text></g><!--entity UC001--><g class="entity" data-entity="UC001" data-source-line="9" data-uid="ent0007" id="entity_UC001"><ellipse cx="381.5504" cy="244.0021" fill="#F1F1F1" rx="163.2104" ry="35.0421" style="stroke:#181818;stroke-width:0.5;"/><text fill="#000000" font-family="sans-serif" font-size="14" lengthAdjust="spacing" textLength="309.8867" x="226.607" y="248.6505">&#1047;&#1072;&#1088;&#1077;&#1075;&#1080;&#1089;&#1090;&#1088;&#1080;&#1088;&#1086;&#1074;&#1072;&#1090;&#1100;&#1089;&#1103; &#1087;&#1086; &#1085;&#1086;&#1084;&#1077;&#1088;&#1091; &#1090;&#1077;&#1083;&#1077;&#1092;&#1086;&#1085;&#1072;</text></g><!--entity UC002--><g class="entity" data-entity="UC002" data-source-line="10" data-uid="ent0008" id="entity_UC002"><ellipse cx="381.5467" cy="342.9973" fill="#F1F1F1" rx="131.8867" ry="28.7773" style="stroke:#181818;stroke-width:0.5;"/><text fill="#000000" font-family="sans-serif" font-size="14" lengthAdjust="spacing" textLength="244.5557" x="259.2689" y="347.6458">&#1044;&#1086;&#1073;&#1072;&#1074;&#1080;&#1090;&#1100; &#1072;&#1074;&#1090;&#1086;&#1084;&#1086;&#1073;&#1080;&#1083;&#1100; &#1074; &#1087;&#1088;&#1086;&#1092;&#1080;&#1083;&#1100;</text></g><!--entity UC003--><g class="entity" data-entity="UC003" data-source-line="11" data-uid="ent0009" id="entity_UC003"><ellipse cx="381.5502" cy="592.004" fill="#F1F1F1" rx="147.4202" ry="31.884" style="stroke:#181818;stroke-width:0.5;"/><text fill="#000000" font-family="sans-serif" font-size="14" lengthAdjust="spacing" textLength="277.1084" x="242.996" y="596.6525">&#1055;&#1088;&#1086;&#1089;&#1084;&#1086;&#1090;&#1088;&#1077;&#1090;&#1100; &#1089;&#1087;&#1080;&#1089;&#1086;&#1082; &#1076;&#1086;&#1089;&#1090;&#1091;&#1087;&#1085;&#1099;&#1093; &#1084;&#1086;&#1077;&#1082;</text></g><!--entity UC004--><g class="entity" data-entity="UC004" data-source-line="12" data-uid="ent0010" id="entity_UC004"><ellipse cx="381.5457" cy="66.9971" fill="#F1F1F1" rx="114.3857" ry="25.2771" style="stroke:#181818;stroke-width:0.5;"/><text fill="#000000" font-family="sans-serif" font-size="14" lengthAdjust="spacing" textLength="207.334" x="277.8787" y="71.6456">&#1055;&#1088;&#1086;&#1089;&#1084;&#1086;&#1090;&#1088;&#1077;&#1090;&#1100; &#1091;&#1089;&#1083;&#1091;&#1075;&#1080; &#1080; &#1094;&#1077;&#1085;&#1099;</text></g><!--entity UC005--><g class="entity" data-entity="UC005" data-source-line="13" data-uid="ent0011" id="entity_UC005"><ellipse cx="381.5474" cy="703.0035" fill="#F1F1F1" rx="124.1674" ry="27.2335" style="stroke:#181818;stroke-width:0.5;"/><text fill="#000000" font-family="sans-serif" font-size="14" lengthAdjust="spacing" textLength="228.2246" x="267.4351" y="707.6519">&#1055;&#1088;&#1086;&#1089;&#1084;&#1086;&#1090;&#1088;&#1077;&#1090;&#1100; &#1089;&#1074;&#1086;&#1073;&#1086;&#1076;&#1085;&#1086;&#1077; &#1074;&#1088;&#1077;&#1084;&#1103;</text></g><!--entity UC006--><g class="entity" data-entity="UC006" data-source-line="14" data-uid="ent0012" id="entity_UC006"><ellipse cx="381.5544" cy="151.0029" fill="#F1F1F1" rx="104.8644" ry="23.3729" style="stroke:#181818;stroke-width:0.5;"/><text fill="#000000" font-family="sans-serif" font-size="14" lengthAdjust="spacing" textLength="186.7236" x="288.1926" y="155.6513">&#1057;&#1086;&#1079;&#1076;&#1072;&#1090;&#1100; &#1079;&#1072;&#1087;&#1080;&#1089;&#1100; &#1085;&#1072; &#1084;&#1086;&#1081;&#1082;&#1091;</text></g><!--entity UC007--><g class="entity" data-entity="UC007" data-source-line="15" data-uid="ent0013" id="entity_UC007"><ellipse cx="381.5544" cy="430.0049" fill="#F1F1F1" rx="106.5744" ry="23.7149" style="stroke:#181818;stroke-width:0.5;"/><text fill="#000000" font-family="sans-serif" font-size="14" lengthAdjust="spacing" textLength="190.4492" x="286.3298" y="434.6533">&#1055;&#1088;&#1086;&#1089;&#1084;&#1086;&#1090;&#1088;&#1077;&#1090;&#1100; &#1089;&#1074;&#1086;&#1080; &#1079;&#1072;&#1087;&#1080;&#1089;&#1080;</text></g><!--entity UC008--><g class="entity" data-entity="UC008" data-source-line="16" data-uid="ent0014" id="entity_UC008"><ellipse cx="381.5536" cy="506.9967" fill="#F1F1F1" rx="78.7336" ry="18.1467" style="stroke:#181818;stroke-width:0.5;"/><text fill="#000000" font-family="sans-serif" font-size="14" lengthAdjust="spacing" textLength="127.6816" x="317.7128" y="511.6452">&#1054;&#1090;&#1084;&#1077;&#1085;&#1080;&#1090;&#1100; &#1079;&#1072;&#1087;&#1080;&#1089;&#1100;</text></g><!--entity UC009--><g class="entity" data-entity="UC009" data-source-line="18" data-uid="ent0015" id="entity_UC009"><ellipse cx="381.5457" cy="964.0031" fill="#F1F1F1" rx="143.3657" ry="31.0731" style="stroke:#181818;stroke-width:0.5;"/><text fill="#000000" font-family="sans-serif" font-size="14" lengthAdjust="spacing" textLength="268.6455" x="247.2229" y="968.6516">&#1053;&#1072;&#1081;&#1090;&#1080; &#1082;&#1083;&#1080;&#1077;&#1085;&#1090;&#1072; &#1087;&#1086; &#1085;&#1086;&#1084;&#1077;&#1088;&#1091; &#1090;&#1077;&#1083;&#1077;&#1092;&#1086;&#1085;&#1072;</text></g><!--entity UC010--><g class="entity" data-entity="UC010" data-source-line="19" data-uid="ent0016" id="entity_UC010"><ellipse cx="381.5494" cy="1083.9999" fill="#F1F1F1" rx="176.9494" ry="37.7899" style="stroke:#181818;stroke-width:0.5;"/><text fill="#000000" font-family="sans-serif" font-size="14" lengthAdjust="spacing" textLength="338.2217" x="212.4386" y="1088.6483">&#1057;&#1086;&#1079;&#1076;&#1072;&#1090;&#1100; &#1079;&#1072;&#1087;&#1080;&#1089;&#1100; &#1076;&#1083;&#1103; &#1082;&#1083;&#1080;&#1077;&#1085;&#1090;&#1072; &#1073;&#1077;&#1079; &#1087;&#1088;&#1080;&#1083;&#1086;&#1078;&#1077;&#1085;&#1080;&#1103;</text></g><!--entity UC011--><g class="entity" data-entity="UC011" data-source-line="20" data-uid="ent0017" id="entity_UC011"><ellipse cx="381.5467" cy="1182.9973" fill="#F1F1F1" rx="120.8867" ry="26.5773" style="stroke:#181818;stroke-width:0.5;"/><text fill="#000000" font-family="sans-serif" font-size="14" lengthAdjust="spacing" textLength="221.2451" x="270.9242" y="1187.6458">&#1055;&#1088;&#1086;&#1089;&#1084;&#1086;&#1090;&#1088;&#1077;&#1090;&#1100; &#1090;&#1077;&#1082;&#1091;&#1097;&#1080;&#1077; &#1079;&#1072;&#1087;&#1080;&#1089;&#1080;</text></g><!--entity UC012--><g class="entity" data-entity="UC012" data-source-line="21" data-uid="ent0018" id="entity_UC012"><ellipse cx="381.5507" cy="875.9981" fill="#F1F1F1" rx="98.6907" ry="22.1381" style="stroke:#181818;stroke-width:0.5;"/><text fill="#000000" font-family="sans-serif" font-size="14" lengthAdjust="spacing" textLength="173.168" x="294.9667" y="880.6466">&#1054;&#1090;&#1084;&#1077;&#1090;&#1080;&#1090;&#1100; &#1086;&#1087;&#1083;&#1072;&#1090;&#1091; &#1091;&#1089;&#1083;&#1091;&#1075;</text></g><!--entity UC013--><g class="entity" data-entity="UC013" data-source-line="22" data-uid="ent0019" id="entity_UC013"><ellipse cx="381.5492" cy="792.0018" fill="#F1F1F1" rx="121.5092" ry="26.7018" style="stroke:#181818;stroke-width:0.5;"/><text fill="#000000" font-family="sans-serif" font-size="14" lengthAdjust="spacing" textLength="222.5713" x="270.2635" y="796.6503">&#1059;&#1087;&#1088;&#1072;&#1074;&#1083;&#1103;&#1090;&#1100; &#1089;&#1090;&#1072;&#1090;&#1091;&#1089;&#1072;&#1084;&#1080; &#1079;&#1072;&#1087;&#1080;&#1089;&#1077;&#1081;</text></g><!--entity UC014--><g class="entity" data-entity="UC014" data-source-line="24" data-uid="ent0020" id="entity_UC014"><ellipse cx="381.5509" cy="1452.0002" fill="#F1F1F1" rx="118.1009" ry="26.0202" style="stroke:#181818;stroke-width:0.5;"/><text fill="#000000" font-family="sans-serif" font-size="14" lengthAdjust="spacing" textLength="215.2979" x="273.902" y="1456.6486">&#1055;&#1088;&#1086;&#1089;&#1084;&#1086;&#1090;&#1088;&#1077;&#1090;&#1100; &#1079;&#1072;&#1076;&#1072;&#1095;&#1080; &#1085;&#1072; &#1076;&#1077;&#1085;&#1100;</text></g><!--entity UC015--><g class="entity" data-entity="UC015" data-source-line="25" data-uid="ent0021" id="entity_UC015"><ellipse cx="381.5464" cy="1552.9973" fill="#F1F1F1" rx="104.9364" ry="23.3873" style="stroke:#181818;stroke-width:0.5;"/><text fill="#000000" font-family="sans-serif" font-size="14" lengthAdjust="spacing" textLength="186.8809" x="288.106" y="1557.6457">&#1054;&#1090;&#1084;&#1077;&#1090;&#1080;&#1090;&#1100; &#1085;&#1072;&#1095;&#1072;&#1083;&#1086; &#1088;&#1072;&#1073;&#1086;&#1090;&#1099;</text></g><!--entity UC016--><g class="entity" data-entity="UC016" data-source-line="26" data-uid="ent0022" id="entity_UC016"><ellipse cx="381.5486" cy="1270.9957" fill="#F1F1F1" rx="122.5786" ry="26.9157" style="stroke:#181818;stroke-width:0.5;"/><text fill="#000000" font-family="sans-serif" font-size="14" lengthAdjust="spacing" textLength="224.8477" x="269.1248" y="1275.6442">&#1054;&#1090;&#1084;&#1077;&#1090;&#1080;&#1090;&#1100; &#1079;&#1072;&#1074;&#1077;&#1088;&#1096;&#1077;&#1085;&#1080;&#1077; &#1088;&#1072;&#1073;&#1086;&#1090;&#1099;</text></g><!--entity UC017--><g class="entity" data-entity="UC017" data-source-line="27" data-uid="ent0023" id="entity_UC017"><ellipse cx="381.5474" cy="1362.0015" fill="#F1F1F1" rx="131.1574" ry="28.6315" style="stroke:#181818;stroke-width:0.5;"/><text fill="#000000" font-family="sans-serif" font-size="14" lengthAdjust="spacing" textLength="243.0176" x="260.0386" y="1366.6499">&#1055;&#1088;&#1086;&#1089;&#1084;&#1086;&#1090;&#1088;&#1077;&#1090;&#1100; &#1089;&#1090;&#1072;&#1090;&#1080;&#1089;&#1090;&#1080;&#1082;&#1091; &#1088;&#1072;&#1073;&#1086;&#1090;&#1099;</text></g><!--entity UC018--><g class="entity" data-entity="UC018" data-source-line="29" data-uid="ent0024" id="entity_UC018"><ellipse cx="381.5464" cy="2012.9993" fill="#F1F1F1" rx="140.1964" ry="30.4393" style="stroke:#181818;stroke-width:0.5;"/><text fill="#000000" font-family="sans-serif" font-size="14" lengthAdjust="spacing" textLength="262.0146" x="250.539" y="2017.6477">&#1055;&#1088;&#1086;&#1089;&#1084;&#1086;&#1090;&#1088;&#1077;&#1090;&#1100; &#1077;&#1078;&#1077;&#1076;&#1085;&#1077;&#1074;&#1085;&#1091;&#1102; &#1074;&#1099;&#1088;&#1091;&#1095;&#1082;&#1091;</text></g><!--entity UC019--><g class="entity" data-entity="UC019" data-source-line="30" data-uid="ent0025" id="entity_UC019"><ellipse cx="381.5473" cy="1638.0035" fill="#F1F1F1" rx="120.6173" ry="26.5235" style="stroke:#181818;stroke-width:0.5;"/><text fill="#000000" font-family="sans-serif" font-size="14" lengthAdjust="spacing" textLength="220.6709" x="271.2119" y="1642.6519">&#1055;&#1088;&#1086;&#1089;&#1084;&#1086;&#1090;&#1088;&#1077;&#1090;&#1100; &#1079;&#1072;&#1075;&#1088;&#1091;&#1079;&#1082;&#1091; &#1073;&#1086;&#1082;&#1089;&#1086;&#1074;</text></g><!--entity UC020--><g class="entity" data-entity="UC020" data-source-line="31" data-uid="ent0026" id="entity_UC020"><ellipse cx="381.5544" cy="1731.0009" fill="#F1F1F1" rx="144.5044" ry="31.3009" style="stroke:#181818;stroke-width:0.5;"/><text fill="#000000" font-family="sans-serif" font-size="14" lengthAdjust="spacing" textLength="271.0244" x="246.0422" y="1735.6493">&#1055;&#1088;&#1086;&#1089;&#1084;&#1086;&#1090;&#1088;&#1077;&#1090;&#1100; &#1089;&#1090;&#1072;&#1090;&#1080;&#1089;&#1090;&#1080;&#1082;&#1091; &#1087;&#1086; &#1091;&#1089;&#1083;&#1091;&#1075;&#1072;&#1084;</text></g><!--entity UC021--><g class="entity" data-entity="UC021" data-source-line="32" data-uid="ent0027" id="entity_UC021"><ellipse cx="381.551" cy="1819.9982" fill="#F1F1F1" rx="103.391" ry="23.0782" style="stroke:#181818;stroke-width:0.5;"/><text fill="#000000" font-family="sans-serif" font-size="14" lengthAdjust="spacing" textLength="183.5039" x="289.799" y="1824.6466">&#1059;&#1087;&#1088;&#1072;&#1074;&#1083;&#1103;&#1090;&#1100; &#1089;&#1087;&#1080;&#1089;&#1082;&#1086;&#1084; &#1084;&#1086;&#1077;&#1082;</text></g><!--entity UC022--><g class="entity" data-entity="UC022" data-source-line="33" data-uid="ent0028" id="entity_UC022"><ellipse cx="381.5474" cy="1921.0035" fill="#F1F1F1" rx="122.1674" ry="26.8335" style="stroke:#181818;stroke-width:0.5;"/><text fill="#000000" font-family="sans-serif" font-size="14" lengthAdjust="spacing" textLength="223.9727" x="269.561" y="1925.6519">&#1059;&#1087;&#1088;&#1072;&#1074;&#1083;&#1103;&#1090;&#1100; &#1091;&#1089;&#1083;&#1091;&#1075;&#1072;&#1084;&#1080; &#1080; &#1094;&#1077;&#1085;&#1072;&#1084;&#1080;</text></g><!--entity ??????--><g class="entity" data-entity="......" data-source-line="3" data-uid="ent0002" id="entity_......"><ellipse cx="41.8041" cy="357.35" fill="#F1F1F1" rx="8" ry="8" style="stroke:#181818;stroke-width:0.5;"/><path d="M41.8041,365.35 L41.8041,392.35 M28.8041,373.35 L54.8041,373.35 M41.8041,392.35 L28.8041,407.35 M41.8041,392.35 L54.8041,407.35" fill="none" style="stroke:#181818;stroke-width:0.5;"/><text fill="#000000" font-family="sans-serif" font-size="14" lengthAdjust="spacing" textLength="53.9082" x="14.85" y="421.8451">&#1050;&#1083;&#1080;&#1077;&#1085;&#1090;</text></g><!--entity ??????--><g class="entity" data-entity="......" data-source-line="4" data-uid="ent0003" id="entity_......"><ellipse cx="41.7992" cy="934.35" fill="#F1F1F1" rx="8" ry="8" style="stroke:#181818;stroke-width:0.5;"/><path d="M41.7992,942.35 L41.7992,969.35 M28.7992,950.35 L54.7992,950.35 M41.7992,969.35 L28.7992,984.35 M41.7992,969.35 L54.7992,984.35" fill="none" style="stroke:#181818;stroke-width:0.5;"/><text fill="#000000" font-family="sans-serif" font-size="14" lengthAdjust="spacing" textLength="51.8984" x="15.85" y="998.8451">&#1050;&#1072;&#1089;&#1089;&#1080;&#1088;</text></g><!--entity ??????--><g class="entity" data-entity="......" data-source-line="5" data-uid="ent0004" id="entity_......"><ellipse cx="41.8022" cy="1396.35" fill="#F1F1F1" rx="8" ry="8" style="stroke:#181818;stroke-width:0.5;"/><path d="M41.8022,1404.35 L41.8022,1431.35 M28.8022,1412.35 L54.8022,1412.35 M41.8022,1431.35 L28.8022,1446.35 M41.8022,1431.35 L54.8022,1446.35" fill="none" style="stroke:#181818;stroke-width:0.5;"/><text fill="#000000" font-family="sans-serif" font-size="14" lengthAdjust="spacing" textLength="60.4844" x="11.56" y="1460.8451">&#1052;&#1086;&#1081;&#1097;&#1080;&#1082;</text></g><!--entity ????????--><g class="entity" data-entity="........" data-source-line="6" data-uid="ent0005" id="entity_........"><ellipse cx="41.7998" cy="1790.35" fill="#F1F1F1" rx="8" ry="8" style="stroke:#181818;stroke-width:0.5;"/><path d="M41.7998,1798.35 L41.7998,1825.35 M28.7998,1806.35 L54.7998,1806.35 M41.7998,1825.35 L28.7998,1840.35 M41.7998,1825.35 L54.7998,1840.35" fill="none" style="stroke:#181818;stroke-width:0.5;"/><text fill="#000000" font-family="sans-serif" font-size="14" lengthAdjust="spacing" textLength="71.5996" x="6" y="1854.8451">&#1044;&#1080;&#1088;&#1077;&#1082;&#1090;&#1086;&#1088;</text></g><!--link ?????? to UC001--><g class="link" data-entity-1="......" data-entity-2="UC001" data-link-type="dependency" data-source-line="36" data-uid="lnk29" id="link_......_UC001"><path d="M69.03,366.18 C95.72,345.91 138.96,315.54 180.6,297 C206.52,285.46 229.6928,277.5838 257.3528,270.0138" fill="none" id="&#1050;&#1083;&#1080;&#1077;&#1085;&#1090;-to-UC001" style="stroke:#181818;stroke-width:1;"/><polygon fill="#181818" points="263.14,268.43,253.4033,266.9476,258.3173,269.7499,255.5151,274.6639,263.14,268.43" style="stroke:#181818;stroke-width:1;"/></g><!--link ?????? to UC002--><g class="link" data-entity-1="......" data-entity-2="UC002" data-link-type="dependency" data-source-line="37" data-uid="lnk30" id="link_......_UC002"><path d="M68.94,382.79 C80.74,380.93 94.86,378.78 107.6,377 C159.03,369.83 210.0743,363.3476 258.6143,357.4176" fill="none" id="&#1050;&#1083;&#1080;&#1077;&#1085;&#1090;-to-UC002" style="stroke:#181818;stroke-width:1;"/><polygon fill="#181818" points="264.57,356.69,255.1514,353.8109,259.6069,357.2963,256.1215,361.7519,264.57,356.69" style="stroke:#181818;stroke-width:1;"/></g><!--link ?????? to UC003--><g class="link" data-entity-1="......" data-entity-2="UC003" data-link-type="dependency" data-source-line="38" data-uid="lnk31" id="link_......_UC003"><path d="M68.22,425.62 C79.54,441.79 93.49,460.41 107.6,476 C133.59,504.7 145.25,506.6 172.6,534 C176.38,537.79 176.02,540.24 180.6,543 C204.02,557.11 225.5042,565.6081 252.2442,572.7681" fill="none" id="&#1050;&#1083;&#1080;&#1077;&#1085;&#1090;-to-UC003" style="stroke:#181818;stroke-width:1;"/><polygon fill="#181818" points="258.04,574.32,250.3809,568.1283,253.2101,573.0267,248.3117,575.856,258.04,574.32" style="stroke:#181818;stroke-width:1;"/></g><!--link ?????? to UC004--><g class="link" data-entity-1="......" data-entity-2="UC004" data-link-type="dependency" data-source-line="39" data-uid="lnk32" id="link_......_UC004"><path d="M48.97,348.58 C61.34,285.84 95.65,163.09 180.6,110 C208.38,92.64 236.2125,83.3664 267.9825,77.1264" fill="none" id="&#1050;&#1083;&#1080;&#1077;&#1085;&#1090;-to-UC004" style="stroke:#181818;stroke-width:1;"/><polygon fill="#181818" points="273.87,75.97,264.2678,73.7796,268.9637,76.9336,265.8096,81.6296,273.87,75.97" style="stroke:#181818;stroke-width:1;"/></g><!--link ?????? to UC005--><g class="link" data-entity-1="......" data-entity-2="UC005" data-link-type="dependency" data-source-line="40" data-uid="lnk33" id="link_......_UC005"><path d="M47.91,425.54 C56.97,488.08 77.75,607.64 107.6,637 C147.05,675.81 199.2274,692.3522 251.7074,699.6622" fill="none" id="&#1050;&#1083;&#1080;&#1077;&#1085;&#1090;-to-UC005" style="stroke:#181818;stroke-width:1;"/><polygon fill="#181818" points="257.65,700.49,249.2879,695.2866,252.6978,699.8002,248.1842,703.2101,257.65,700.49" style="stroke:#181818;stroke-width:1;"/></g><!--link ?????? to UC006--><g class="link" data-entity-1="......" data-entity-2="UC006" data-link-type="dependency" data-source-line="41" data-uid="lnk34" id="link_......_UC006"><path d="M58.9,348.49 C79.92,303.21 121.2,229.37 180.6,191 C209.67,172.22 239.7702,162.9275 273.2002,157.4075" fill="none" id="&#1050;&#1083;&#1080;&#1077;&#1085;&#1090;-to-UC006" style="stroke:#181818;stroke-width:1;"/><polygon fill="#181818" points="279.12,156.43,269.5886,153.9497,274.1868,157.2446,270.8919,161.8428,279.12,156.43" style="stroke:#181818;stroke-width:1;"/></g><!--link ?????? to UC007--><g class="link" data-entity-1="......" data-entity-2="UC007" data-link-type="dependency" data-source-line="42" data-uid="lnk35" id="link_......_UC007"><path d="M69.02,390.34 C115.44,396.25 208.198,408.0625 282.138,417.4725" fill="none" id="&#1050;&#1083;&#1080;&#1077;&#1085;&#1090;-to-UC007" style="stroke:#181818;stroke-width:1;"/><polygon fill="#181818" points="288.09,418.23,279.667,413.1258,283.13,417.5988,278.657,421.0618,288.09,418.23" style="stroke:#181818;stroke-width:1;"/></g><!--link ?????? to UC008--><g class="link" data-entity-1="......" data-entity-2="UC008" data-link-type="dependency" data-source-line="43" data-uid="lnk36" id="link_......_UC008"><path d="M69.22,407.23 C95.88,426.62 138.95,455.19 180.6,471 C221.16,486.4 262.9515,494.5253 301.6115,499.6253" fill="none" id="&#1050;&#1083;&#1080;&#1077;&#1085;&#1090;-to-UC008" style="stroke:#181818;stroke-width:1;"/><polygon fill="#181818" points="307.56,500.41,299.1604,495.2673,302.6029,499.7561,298.1142,503.1986,307.56,500.41" style="stroke:#181818;stroke-width:1;"/></g><!--link ?????? to UC009--><g class="link" data-entity-1="......" data-entity-2="UC009" data-link-type="dependency" data-source-line="45" data-uid="lnk37" id="link_......_UC009"><path d="M68.19,964 C104.47,964 167.88,964 232.07,964" fill="none" id="&#1050;&#1072;&#1089;&#1089;&#1080;&#1088;-to-UC009" style="stroke:#181818;stroke-width:1;"/><polygon fill="#181818" points="238.07,964,229.07,960,233.07,964,229.07,968,238.07,964" style="stroke:#181818;stroke-width:1;"/></g><!--link ?????? to UC010--><g class="link" data-entity-1="......" data-entity-2="UC010" data-link-type="dependency" data-source-line="46" data-uid="lnk38" id="link_......_UC010"><path d="M66.97,1002.42 C77.72,1016.41 91.58,1030.99 107.6,1040 C138.35,1057.29 168.0519,1067.1265 203.1719,1074.0065" fill="none" id="&#1050;&#1072;&#1089;&#1089;&#1080;&#1088;-to-UC010" style="stroke:#181818;stroke-width:1;"/><polygon fill="#181818" points="209.06,1075.16,200.9969,1069.5044,204.1533,1074.1988,199.4589,1077.3552,209.06,1075.16" style="stroke:#181818;stroke-width:1;"/></g><!--link ?????? to UC011--><g class="link" data-entity-1="......" data-entity-2="UC011" data-link-type="dependency" data-source-line="47" data-uid="lnk39" id="link_......_UC011"><path d="M60.52,1002.48 C82.21,1044.5 123.25,1109.72 180.6,1139 C209.57,1153.79 237.4951,1162.4113 268.9751,1168.9413" fill="none" id="&#1050;&#1072;&#1089;&#1089;&#1080;&#1088;-to-UC011" style="stroke:#181818;stroke-width:1;"/><polygon fill="#181818" points="274.85,1170.16,266.85,1164.4154,269.9542,1169.1445,265.2252,1172.2486,274.85,1170.16" style="stroke:#181818;stroke-width:1;"/></g><!--link ?????? to UC012--><g class="link" data-entity-1="......" data-entity-2="UC012" data-link-type="dependency" data-source-line="48" data-uid="lnk40" id="link_......_UC012"><path d="M68.17,953.3 C80.06,948.42 94.47,942.69 107.6,938 C139.63,926.55 147.63,923.38 180.6,915 C220.19,904.94 258.8578,897.0886 295.8478,890.3286" fill="none" id="&#1050;&#1072;&#1089;&#1089;&#1080;&#1088;-to-UC012" style="stroke:#181818;stroke-width:1;"/><polygon fill="#181818" points="301.75,889.25,292.1775,886.9331,296.8315,890.1489,293.6157,894.8028,301.75,889.25" style="stroke:#181818;stroke-width:1;"/></g><!--link ?????? to UC013--><g class="link" data-entity-1="......" data-entity-2="UC013" data-link-type="dependency" data-source-line="49" data-uid="lnk41" id="link_......_UC013"><path d="M68.24,931.91 C93.53,902.31 135.03,859.48 180.6,836 C209.35,821.18 237.0561,812.5639 268.3961,806.0339" fill="none" id="&#1050;&#1072;&#1089;&#1089;&#1080;&#1088;-to-UC013" style="stroke:#181818;stroke-width:1;"/><polygon fill="#181818" points="274.27,804.81,264.6433,802.7299,269.3751,805.8299,266.2751,810.5617,274.27,804.81" style="stroke:#181818;stroke-width:1;"/></g><!--link ?????? to UC014--><g class="link" data-entity-1="......" data-entity-2="UC014" data-link-type="dependency" data-source-line="51" data-uid="lnk42" id="link_......_UC014"><path d="M72.48,1428.28 C116.18,1431.65 194.1777,1437.6496 263.4277,1442.9796" fill="none" id="&#1052;&#1086;&#1081;&#1097;&#1080;&#1082;-to-UC014" style="stroke:#181818;stroke-width:1;"/><polygon fill="#181818" points="269.41,1443.44,260.7435,1438.7611,264.4247,1443.0563,260.1296,1446.7375,269.41,1443.44" style="stroke:#181818;stroke-width:1;"/></g><!--link ?????? to UC015--><g class="link" data-entity-1="......" data-entity-2="UC015" data-link-type="dependency" data-source-line="52" data-uid="lnk43" id="link_......_UC015"><path d="M72.41,1443.15 C99.8,1458.5 142.01,1480.86 180.6,1496 C221.93,1512.21 263.891,1524.5083 302.381,1534.4583" fill="none" id="&#1052;&#1086;&#1081;&#1097;&#1080;&#1082;-to-UC015" style="stroke:#181818;stroke-width:1;"/><polygon fill="#181818" points="308.19,1535.96,300.4776,1529.8348,303.3491,1534.7086,298.4753,1537.5802,308.19,1535.96" style="stroke:#181818;stroke-width:1;"/></g><!--link ?????? to UC016--><g class="link" data-entity-1="......" data-entity-2="UC016" data-link-type="dependency" data-source-line="53" data-uid="lnk44" id="link_......_UC016"><path d="M72.47,1404.28 C99.32,1384.25 139.58,1353.29 172.6,1324 C176.36,1320.66 176.2,1318.43 180.6,1316 C208.65,1300.55 235.8234,1291.6579 266.8834,1284.9979" fill="none" id="&#1052;&#1086;&#1081;&#1097;&#1080;&#1082;-to-UC016" style="stroke:#181818;stroke-width:1;"/><polygon fill="#181818" points="272.75,1283.74,263.1114,1281.7158,267.8611,1284.7883,264.7887,1289.538,272.75,1283.74" style="stroke:#181818;stroke-width:1;"/></g><!--link ?????? to UC017--><g class="link" data-entity-1="......" data-entity-2="UC017" data-link-type="dependency" data-source-line="54" data-uid="lnk45" id="link_......_UC017"><path d="M72.48,1420.38 C118.76,1411.61 204.3049,1395.3972 275.5949,1381.8872" fill="none" id="&#1052;&#1086;&#1081;&#1097;&#1080;&#1082;-to-UC017" style="stroke:#181818;stroke-width:1;"/><polygon fill="#181818" points="281.49,1380.77,271.9026,1378.5157,276.5774,1381.701,273.3922,1386.3758,281.49,1380.77" style="stroke:#181818;stroke-width:1;"/></g><!--link ???????? to UC018--><g class="link" data-entity-1="........" data-entity-2="UC018" data-link-type="dependency" data-source-line="56" data-uid="lnk46" id="link_........_UC018"><path d="M69.42,1858.64 C94.34,1891.84 134.57,1938.45 180.6,1965 C205.49,1979.36 228.6811,1987.977 256.7611,1995.037" fill="none" id="&#1044;&#1080;&#1088;&#1077;&#1082;&#1090;&#1086;&#1088;-to-UC018" style="stroke:#181818;stroke-width:1;"/><polygon fill="#181818" points="262.58,1996.5,254.827,1990.4262,257.7309,1995.2808,252.8763,1998.1847,262.58,1996.5" style="stroke:#181818;stroke-width:1;"/></g><!--link ???????? to UC019--><g class="link" data-entity-1="........" data-entity-2="UC019" data-link-type="dependency" data-source-line="57" data-uid="lnk47" id="link_........_UC019"><path d="M70.95,1781.48 C96.14,1749.88 135.92,1706.49 180.6,1682 C208.81,1666.54 236.186,1657.7333 267.396,1651.2333" fill="none" id="&#1044;&#1080;&#1088;&#1077;&#1082;&#1090;&#1086;&#1088;-to-UC019" style="stroke:#181818;stroke-width:1;"/><polygon fill="#181818" points="273.27,1650.01,263.6435,1647.9291,268.375,1651.0295,265.2746,1655.761,273.27,1650.01" style="stroke:#181818;stroke-width:1;"/></g><!--link ???????? to UC020--><g class="link" data-entity-1="........" data-entity-2="UC020" data-link-type="dependency" data-source-line="58" data-uid="lnk48" id="link_........_UC020"><path d="M78.09,1804.69 C87.57,1800.9 97.88,1797.05 107.6,1794 C161.19,1777.17 216.1225,1763.964 266.7025,1753.154" fill="none" id="&#1044;&#1080;&#1088;&#1077;&#1082;&#1090;&#1086;&#1088;-to-UC020" style="stroke:#181818;stroke-width:1;"/><polygon fill="#181818" points="272.57,1751.9,262.9328,1749.8693,267.6804,1752.945,264.6048,1757.6927,272.57,1751.9" style="stroke:#181818;stroke-width:1;"/></g><!--link ???????? to UC021--><g class="link" data-entity-1="........" data-entity-2="UC021" data-link-type="dependency" data-source-line="59" data-uid="lnk49" id="link_........_UC021"><path d="M77.99,1820 C124.87,1820 203.82,1820 271.79,1820" fill="none" id="&#1044;&#1080;&#1088;&#1077;&#1082;&#1090;&#1086;&#1088;-to-UC021" style="stroke:#181818;stroke-width:1;"/><polygon fill="#181818" points="277.79,1820,268.79,1816,272.79,1820,268.79,1824,277.79,1820" style="stroke:#181818;stroke-width:1;"/></g><!--link ???????? to UC022--><g class="link" data-entity-1="........" data-entity-2="UC022" data-link-type="dependency" data-source-line="60" data-uid="lnk50" id="link_........_UC022"><path d="M77.99,1830.52 C132.06,1846.69 230.9815,1876.2711 301.8815,1897.4711" fill="none" id="&#1044;&#1080;&#1088;&#1077;&#1082;&#1090;&#1086;&#1088;-to-UC022" style="stroke:#181818;stroke-width:1;"/><polygon fill="#181818" points="307.63,1899.19,300.1531,1892.7793,302.8396,1897.7576,297.8613,1900.444,307.63,1899.19" style="stroke:#181818;stroke-width:1;"/></g><!--link UC003 to UC005--><g class="link" data-entity-1="UC003" data-entity-2="UC005" data-link-type="dependency" data-source-line="62" data-uid="lnk51" id="link_UC003_UC005"><path d="M381.55,624.09 C381.55,640.28 381.55,653.74 381.55,669.28" fill="none" id="UC003-to-UC005" style="stroke:#181818;stroke-width:1;stroke-dasharray:7,7;"/><polygon fill="#181818" points="381.55,675.28,385.55,666.28,381.55,670.28,377.55,666.28,381.55,675.28" style="stroke:#181818;stroke-width:1;"/><text fill="#000000" font-family="sans-serif" font-size="13" lengthAdjust="spacing" textLength="63.0068" x="338.55" y="654.3969">&#171;include&#187;</text></g><!--link UC003 to UC004--><g class="link" data-entity-1="UC003" data-entity-2="UC004" data-link-type="dependency" data-source-line="63" data-uid="lnk52" id="link_UC003_UC004"><path d="M243.81,603.7 C207.52,599.37 171.85,587.08 147.84,559.5 C82.08,483.96 114.73,185.44 180.6,110 C202.31,85.14 228.6551,73.6942 261.0051,67.8642" fill="none" id="UC003-to-UC004" style="stroke:#181818;stroke-width:1;stroke-dasharray:7,7;"/><polygon fill="#181818" points="266.91,66.8,257.3432,64.4596,261.9893,67.6868,258.7621,72.3328,266.91,66.8" style="stroke:#181818;stroke-width:1;"/><text fill="#000000" font-family="sans-serif" font-size="13" lengthAdjust="spacing" textLength="63.0068" x="108.6" y="555.5669">&#171;include&#187;</text></g><!--link UC005 to UC006--><g class="link" data-entity-1="UC005" data-entity-2="UC006" data-link-type="dependency" data-source-line="64" data-uid="lnk53" id="link_UC005_UC006"><path d="M262.64,694.96 C219.09,685.47 174.1,666.54 147.84,629.5 C91.34,549.78 115.73,264.08 180.6,191 C204.8,163.73 235.885,152.6237 271.595,148.2237" fill="none" id="UC005-to-UC006" style="stroke:#181818;stroke-width:1;stroke-dasharray:7,7;"/><polygon fill="#181818" points="277.55,147.49,268.1284,144.6206,272.5875,148.1014,269.1067,152.5606,277.55,147.49" style="stroke:#181818;stroke-width:1;"/><text fill="#000000" font-family="sans-serif" font-size="13" lengthAdjust="spacing" textLength="63.0068" x="108.6" y="625.5669">&#171;include&#187;</text></g><!--link UC009 to UC010--><g class="link" data-entity-1="UC009" data-entity-2="UC010" data-link-type="dependency" data-source-line="65" data-uid="lnk54" id="link_UC009_UC010"><path d="M381.55,995.29 C381.55,1010.81 381.55,1023.69 381.55,1040.03" fill="none" id="UC009-to-UC010" style="stroke:#181818;stroke-width:1;stroke-dasharray:7,7;"/><polygon fill="#181818" points="381.55,1046.03,385.55,1037.03,381.55,1041.03,377.55,1037.03,381.55,1046.03" style="stroke:#181818;stroke-width:1;"/><text fill="#000000" font-family="sans-serif" font-size="13" lengthAdjust="spacing" textLength="63.0068" x="338.55" y="1025.2069">&#171;include&#187;</text></g><!--link UC011 to UC013--><g class="link" data-entity-1="UC011" data-entity-2="UC013" data-link-type="dependency" data-source-line="66" data-uid="lnk55" id="link_UC011_UC013"><path d="M262.51,1177.91 C232.77,1171.38 203,1159.62 180.6,1139 C144.16,1105.46 155.2,1081.47 147.84,1032.5 C136.77,958.85 106.8,912.43 180.6,836 C201.69,814.16 225.0604,803.2605 254.7104,796.7305" fill="none" id="UC011-to-UC013" style="stroke:#181818;stroke-width:1;stroke-dasharray:7,7;"/><polygon fill="#181818" points="260.57,795.44,250.9203,793.4694,255.687,796.5154,252.641,801.2821,260.57,795.44" style="stroke:#181818;stroke-width:1;"/><text fill="#000000" font-family="sans-serif" font-size="13" lengthAdjust="spacing" textLength="63.0068" x="108.6" y="1028.5669">&#171;include&#187;</text></g><!--link UC014 to UC015--><g class="link" data-entity-1="UC014" data-entity-2="UC015" data-link-type="dependency" data-source-line="67" data-uid="lnk56" id="link_UC014_UC015"><path d="M381.55,1478.37 C381.55,1494.16 381.55,1508.04 381.55,1523.32" fill="none" id="UC014-to-UC015" style="stroke:#181818;stroke-width:1;stroke-dasharray:7,7;"/><polygon fill="#181818" points="381.55,1529.32,385.55,1520.32,381.55,1524.32,377.55,1520.32,381.55,1529.32" style="stroke:#181818;stroke-width:1;"/><text fill="#000000" font-family="sans-serif" font-size="13" lengthAdjust="spacing" textLength="61.1851" x="339.55" y="1508.3869">&#171;extend&#187;</text></g><!--link UC014 to UC016--><g class="link" data-entity-1="UC014" data-entity-2="UC016" data-link-type="dependency" data-source-line="68" data-uid="lnk57" id="link_UC014_UC016"><path d="M265.35,1446.87 C234.84,1440.45 203.97,1428.75 180.6,1408 C143.03,1374.64 115.54,1337.13 148.84,1299.5 C180.81,1263.38 227.0413,1254.4646 273.9313,1255.4446" fill="none" id="UC014-to-UC016" style="stroke:#181818;stroke-width:1;stroke-dasharray:7,7;"/><polygon fill="#181818" points="279.93,1255.57,271.0155,1251.3828,274.9311,1255.4655,270.8484,1259.3811,279.93,1255.57" style="stroke:#181818;stroke-width:1;"/><text fill="#000000" font-family="sans-serif" font-size="13" lengthAdjust="spacing" textLength="61.1851" x="109.6" y="1312.5669">&#171;extend&#187;</text></g><!--link UC021 to UC022--><g class="link" data-entity-1="UC021" data-entity-2="UC022" data-link-type="dependency" data-source-line="69" data-uid="lnk58" id="link_UC021_UC022"><path d="M381.55,1843.24 C381.55,1858.27 381.55,1871.89 381.55,1887.67" fill="none" id="UC021-to-UC022" style="stroke:#181818;stroke-width:1;stroke-dasharray:7,7;"/><polygon fill="#181818" points="381.55,1893.67,385.55,1884.67,381.55,1888.67,377.55,1884.67,381.55,1893.67" style="stroke:#181818;stroke-width:1;"/><text fill="#000000" font-family="sans-serif" font-size="13" lengthAdjust="spacing" textLength="63.0068" x="338.55" y="1873.1869">&#171;include&#187;</text></g><!--SRC=[bLNRQjj047tNLonvQXzIlFAz1B_q6_e18NPJWt4WTQ5G2h7TAobD7mA5qWiXFo0xKUt8blCBit_KCoDf8yThkmKzIEVid9qvCxlgj9xrLEz87RSFd_TKittSEkYrZxgUjt_GEpfMz9rcDAMGOZEuWmBJDtsQcfCC-a4BkZ6Vi3BAe7Fc4HYP0IsmqcFb_UvXfwLsw09a7qH8SmeKVQKnhy87P2YYO4UzzfHwGD-m5OjS9Ulnpg8B6WCVcC_0pXJTqa9HBE6XEJ539S8pVBm565FmKEs_K4-V50fQHC-1ZYY0o9H55B_QxKUeOSRW6CAy5qG4iIA-YFmMhiynabSeKW1kELK8HOgkUGNm8S3Od9ftIhQ09rQik4bi26Y6Q5Ily9ZtqeTJ6rpQdCbOobaW3JOdH4dYvToSMOMoA5o0dc1PaDWnWI5I1N_4t9-qBsPe0olRjvxcb6Xg8wiI-Gk6pxcSh0UvJUtI6fRAwfyWRn01oUXk7ZcpV-zzVMkfrp3xR6M74LudoInW3X3-9qtRkgWBcymOo1aOok48dPPedRU4oqoIMs3XJ38TvcR1HYLpU2cPyJ0Z-TH-JfoZ4190SgaH8TrOXMBchpjrYMAhFh243CAr-68xf4lkp6C92jWk9TcDHDXEhYwxuoPI23VoOs8o77F6Rnw_fFxqYfco-swLwfRwG-ar7vyGQSKmz0iVebCUDDINEm-wjit7Amx26oSZfpAIMs9i5Uh_MvBCVkwEGAipCR-mTZRICOZuoAnSHxvU5xUqJVuwIhwjWE-zyRpyJqFjxZRIkzS9-swuw8PBRhZiXYjkkEg6QvAu_RLPlEw4SUYTi7R3lXikOi_SlzFY9JTSTiCLDro5-Bs_iELgwwdwMWfZjPRIwodVywIbwb7QBVLOxUsrkmUTbyrMex5CbXnaEICh3hAUahgmIcgTaKK7MSh89A7MgrwhsxpFLLOuFnFr_MNHlm00]--></g></svg>